<svg width="21" height="21" viewBox="0 0 21 21" fill="none" xmlns="http://www.w3.org/2000/svg">
<g clip-path="url(#clip0_1881_69)">
<path d="M7.48242 3.31641C7.63073 3.59725 7.78835 3.92522 7.90039 4.19434L7.99023 4.41113L8.22266 4.375C9.70224 4.14833 11.1961 4.14812 12.7051 4.375L12.9375 4.41016L13.0273 4.19434C13.1397 3.92452 13.2937 3.59725 13.4395 3.31738C14.7546 3.56341 16.0153 3.96791 17.2002 4.51465C19.3746 7.79026 20.4604 11.4688 20.0898 15.7061C18.4979 16.8783 16.9526 17.613 15.4316 18.1074C15.1459 17.7001 14.885 17.2739 14.6494 16.8311C15.1499 16.6228 15.6341 16.3811 16.0947 16.1035L16.4766 15.873L16.1201 15.6064C15.9829 15.5037 15.8468 15.396 15.7139 15.2852L15.5664 15.1621L15.3936 15.2441C12.2238 16.7446 8.742 16.7449 5.53125 15.2432L5.35742 15.1621L5.21094 15.2861C5.0804 15.3962 4.94463 15.5032 4.80664 15.6055L4.44629 15.8721L4.83105 16.1035C5.29004 16.3796 5.77236 16.6219 6.27246 16.8301C6.03668 17.2732 5.77474 17.6987 5.48926 18.1064C3.9705 17.6121 2.4271 16.8772 0.835938 15.707C0.518675 12.0426 1.21466 8.33112 3.7168 4.51758C4.90239 3.96901 6.16513 3.56259 7.48242 3.31641ZM7.14062 9.14355C5.93259 9.14355 5.04306 10.2414 5.04297 11.4902C5.04297 12.7414 5.95185 13.8359 7.14062 13.8359C8.27252 13.8359 9.12737 12.8728 9.22852 11.7227L9.23828 11.4902C9.25525 10.2335 8.34328 9.14361 7.14062 9.14355ZM13.7852 9.14355C12.5771 9.14357 11.6876 10.2414 11.6875 11.4902C11.6875 12.7414 12.5964 13.8359 13.7852 13.8359C14.9175 13.8359 15.7708 12.8724 15.873 11.7227L15.8828 11.4902C15.8998 10.2335 14.9878 9.14355 13.7852 9.14355Z" stroke="white" stroke-width="0.6"/>
</g>
<defs>
<clipPath id="clip0_1881_69">
<rect width="20" height="20" fill="white" transform="translate(0.462891 0.754883)"/>
</clipPath>
</defs>
</svg>
