<svg width="19" height="19" viewBox="0 0 19 19" fill="none" xmlns="http://www.w3.org/2000/svg">
<path d="M9.48469 1.67261C5.02518 1.67261 1.40234 5.29544 1.40234 9.75495C1.40234 11.1884 1.79546 12.5261 2.45107 13.6939L1.41538 17.3912C1.39884 17.4503 1.39809 17.5128 1.41322 17.5724C1.42834 17.6319 1.45881 17.6864 1.50159 17.7305C1.54436 17.7746 1.59795 17.8067 1.65701 17.8237C1.71607 17.8406 1.77853 17.8417 1.83817 17.827L5.69334 16.8716C6.82617 17.4764 8.1116 17.8373 9.48469 17.8373C13.9442 17.8373 17.567 14.2145 17.567 9.75495C17.567 5.29544 13.9442 1.67261 9.48469 1.67261ZM9.48469 2.37542C13.5644 2.37542 16.8642 5.67529 16.8642 9.75495C16.8642 13.8346 13.5644 17.1345 9.48469 17.1345C8.17676 17.1345 6.95179 16.7935 5.88689 16.1976C5.80901 16.1541 5.71748 16.1418 5.63089 16.1633L2.25478 17L3.16006 13.77C3.17302 13.7244 3.17659 13.6766 3.17058 13.6295C3.16456 13.5825 3.14908 13.5371 3.12506 13.4962C2.47789 12.3988 2.10516 11.122 2.10516 9.75495C2.10516 5.67529 5.40503 2.37542 9.48469 2.37542ZM6.54784 5.53808C6.32257 5.53808 6.00086 5.62188 5.73658 5.90664C5.57785 6.07768 4.91641 6.72214 4.91641 7.85516C4.91641 9.03642 5.73567 10.0557 5.83473 10.1867H5.83542V10.1873C5.82602 10.175 5.96115 10.3707 6.14152 10.6053C6.3219 10.84 6.57413 11.1482 6.89101 11.4818C7.52476 12.1491 8.41581 12.9202 9.52175 13.3919C10.0311 13.6087 10.4328 13.7397 10.7373 13.8352C11.3014 14.0124 11.8152 13.9855 12.2012 13.9286C12.4901 13.886 12.8079 13.7473 13.1223 13.5484C13.4367 13.3494 13.7448 13.102 13.8807 12.7261C13.978 12.4566 14.0275 12.2076 14.0454 12.0027C14.0544 11.9003 14.0555 11.8098 14.0489 11.7261C14.0422 11.6424 14.0493 11.5783 13.9713 11.4502C13.8077 11.1816 13.6224 11.1746 13.4291 11.0789C13.3217 11.0257 13.0159 10.8764 12.7091 10.7302C12.4027 10.5842 12.1374 10.4549 11.974 10.3967C11.8708 10.3595 11.7448 10.3061 11.5629 10.3267C11.3811 10.3473 11.2015 10.4785 11.0969 10.6335C10.9978 10.7804 10.5988 11.2514 10.4771 11.3898C10.4755 11.3888 10.4861 11.3937 10.438 11.3699C10.2876 11.2955 10.1036 11.2321 9.83129 11.0885C9.55901 10.9449 9.21841 10.7328 8.84571 10.4042V10.4035C8.29097 9.91518 7.9024 9.30203 7.77982 9.09607C7.78808 9.08624 7.77884 9.09814 7.79629 9.08097L7.79698 9.08028C7.92226 8.95688 8.03329 8.8095 8.12711 8.70142C8.26013 8.54818 8.31883 8.41308 8.38243 8.28687C8.50917 8.03532 8.4386 7.75852 8.36527 7.61288V7.6122C8.37033 7.62227 8.3256 7.52358 8.27742 7.40973C8.22909 7.29555 8.1675 7.14753 8.10171 6.98969C7.97014 6.674 7.82325 6.31992 7.73589 6.11254V6.11186C7.63298 5.86758 7.49376 5.69161 7.31173 5.60671C7.12971 5.52181 6.96889 5.54595 6.96239 5.54563H6.9617C6.83181 5.53963 6.68926 5.53808 6.54784 5.53808ZM6.54784 6.24089C6.68332 6.24089 6.81689 6.24254 6.92876 6.24775C7.04384 6.25349 7.03668 6.25396 7.01455 6.24363C6.99206 6.23315 7.02257 6.22974 7.08799 6.38502C7.17352 6.58808 7.32114 6.94344 7.45312 7.2601C7.51911 7.41844 7.58087 7.56703 7.6302 7.68358C7.67952 7.80012 7.70625 7.86519 7.73727 7.92723V7.92791L7.73795 7.9286C7.76836 7.9886 7.76567 7.95019 7.75511 7.97115C7.68095 8.11833 7.67089 8.15447 7.59588 8.24088C7.48167 8.37246 7.36516 8.5192 7.3035 8.57994C7.24955 8.63294 7.1522 8.7155 7.09142 8.87712C7.03054 9.03899 7.05896 9.26108 7.15662 9.42688C7.28665 9.64763 7.71515 10.3451 8.38105 10.9313C8.80042 11.301 9.19111 11.5457 9.50322 11.7103C9.81533 11.875 10.0695 11.9711 10.1264 11.9993C10.2615 12.0661 10.4091 12.118 10.5808 12.0974C10.7524 12.0768 10.9004 11.9727 10.9946 11.8661L10.9953 11.8654C11.1207 11.7233 11.4933 11.2979 11.6721 11.0357C11.6796 11.0383 11.6771 11.0363 11.7366 11.0576V11.0583H11.7373C11.7644 11.068 12.1042 11.2201 12.4071 11.3644C12.7101 11.5088 13.0176 11.6588 13.1175 11.7083C13.2617 11.7796 13.3298 11.8261 13.3474 11.8263C13.3486 11.8572 13.3498 11.8907 13.3454 11.9416C13.333 12.0828 13.2953 12.2781 13.2198 12.4873C13.1827 12.5897 12.99 12.8008 12.7469 12.9547C12.5038 13.1085 12.2079 13.2172 12.0983 13.2333C11.7688 13.2819 11.3776 13.2996 10.948 13.1647C10.6501 13.0712 10.2786 12.9501 9.79766 12.7453C8.82222 12.3293 7.99318 11.6215 7.40096 10.9979C7.10485 10.6861 6.86761 10.3959 6.69883 10.1764C6.53037 9.95722 6.45681 9.84317 6.39547 9.7625L6.39478 9.76182C6.28591 9.61784 5.61922 8.69049 5.61922 7.85516C5.61922 6.97111 6.02984 6.62443 6.25203 6.38502C6.36867 6.25934 6.49619 6.24089 6.54784 6.24089Z" fill="white"/>
</svg>
