<svg width="106" height="72" viewBox="0 0 106 72" fill="none" xmlns="http://www.w3.org/2000/svg">
<rect x="3.18945" y="27.3567" width="29.8234" height="29.8228" rx="0.811962" transform="rotate(-15 3.18945 27.3567)" fill="#CD8848"/>
<path d="M10.7253 25.3374L9.60878 21.1706C8.80495 18.1707 10.5852 15.0871 13.5852 14.2833L16.4569 13.5138C19.4568 12.71 22.5404 14.4903 23.3442 17.4902L24.4607 21.657" stroke="#DC9655" stroke-width="4.05981"/>
<circle cx="20.6171" cy="34.7837" r="2.93345" transform="rotate(-15 20.6171 34.7837)" fill="#BE7531"/>
<path d="M19.8175 35.0354L21.4346 34.6021L25.6684 43.1484L20.4241 44.5536L19.8175 35.0354Z" fill="#BE7531"/>
<rect width="45.7987" height="45.7978" rx="1.2469" transform="matrix(-0.965926 -0.258819 -0.258819 0.965926 101.781 27.2874)" fill="#CD8848"/>
<path d="M90.2066 24.1864L91.9212 17.7877C93.1556 13.1808 90.4216 8.44548 85.8148 7.21107L81.4047 6.02941C76.7979 4.795 72.0626 7.52893 70.8282 12.1358L69.1136 18.5346" stroke="#DC9655" stroke-width="6.2345"/>
<circle cx="4.5048" cy="4.5048" r="4.5048" transform="matrix(-0.965926 -0.258819 -0.258819 0.965926 80.5352 35.5072)" fill="#BE7531"/>
<path d="M76.2452 39.079L73.7619 38.4137L67.2602 51.5378L75.3137 53.6957L76.2452 39.079Z" fill="#BE7531"/>
</svg>
