<svg width="83" height="83" viewBox="0 0 83 83" fill="none" xmlns="http://www.w3.org/2000/svg">
<path d="M76.2719 41.6956C76.2719 60.9653 60.6507 76.5864 41.3811 76.5864C22.1114 76.5864 6.49023 60.9653 6.49023 41.6956C6.49023 22.426 22.1114 6.80481 41.3811 6.80481C60.6507 6.80481 76.2719 22.426 76.2719 41.6956ZM16.9575 41.6956C16.9575 55.1844 27.8923 66.1192 41.3811 66.1192C54.8698 66.1192 65.8046 55.1844 65.8046 41.6956C65.8046 28.2069 54.8698 17.2721 41.3811 17.2721C27.8923 17.2721 16.9575 28.2069 16.9575 41.6956Z" fill="#5793EE"/>
<rect x="35.1406" y="0.777466" width="12.4816" height="12.4816" fill="#5793EE"/>
<rect x="35.1406" y="70.1323" width="12.4816" height="12.4816" fill="#5793EE"/>
<rect x="82.2979" y="35.4547" width="12.4816" height="12.4816" transform="rotate(90 82.2979 35.4547)" fill="#5793EE"/>
<rect x="12.9414" y="35.455" width="12.4816" height="12.4816" transform="rotate(90 12.9414 35.455)" fill="#5793EE"/>
<rect x="16.8604" y="75.0424" width="12.4816" height="12.4816" transform="rotate(-135 16.8604 75.0424)" fill="#5793EE"/>
<rect x="65.9004" y="26.0012" width="12.4816" height="12.4816" transform="rotate(-135 65.9004 26.0012)" fill="#5793EE"/>
<rect x="74.7266" y="66.2162" width="12.4816" height="12.4816" transform="rotate(135 74.7266 66.2162)" fill="#5793EE"/>
<rect x="25.6846" y="17.175" width="12.4816" height="12.4816" transform="rotate(135 25.6846 17.175)" fill="#5793EE"/>
</svg>
