<svg xmlns="http://www.w3.org/2000/svg" width="15" height="22" viewBox="0 0 15 22" fill="none">
  <path fill-rule="evenodd" clip-rule="evenodd" d="M0 8.38211V5.39697H4.63671V6.71002L4.35974 6.96648V8.71037L4.54438 8.91554V9.00786H4.49309V9.05915H4.54438V9.15148H4.49309V9.20277H4.54438V9.29509H4.49309V9.34638H4.54438V9.43871H4.49309V9.47974H4.54438V9.58232H4.49309V9.62336H4.54438V9.71568H4.49309V9.76697H4.54438V9.85929H4.49309V9.91058H4.54438V10.0132H4.49309V10.0645H4.54438V10.1568H4.49309V10.1978H4.54438V10.3004H4.49309V10.3517H4.54438V10.444H4.49309V10.4953H4.54438V10.5876H4.49309V10.6287H4.54438V10.7312H4.49309V10.7825H4.54438V10.8851H4.49309V10.9774L4.42129 11.0595V14.0241L4.8111 14.4037H4.97523L5.87795 15.3269V17.1221H2.86204V8.38211H0ZM4.78032 6.57667H4.72903V5.39697H4.78032V6.57667ZM5.87795 14.455V5.39697H5.05729V12.7521L4.97523 12.8342V13.5933L5.87795 14.455ZM4.73929 8.19746V12.6803H4.79058L4.78032 10.9672H4.83161V11.5416L4.92394 11.4903V11.4185L4.87265 11.398V11.3467L4.97523 11.398V11.3057L4.87265 11.2544V11.2031L4.97523 11.2544V11.1572L4.87265 11.1108V11.0595L4.97523 11.1108V11.0185L4.87265 10.9672V10.9159L4.97523 10.9672V10.8749L4.87265 10.8236V10.7723L4.97523 10.8236V10.7312L4.87265 10.6799V10.6287L4.97523 10.6799V10.5876L4.87265 10.5363V10.485L4.97523 10.5363V10.444L4.87265 10.403V10.3517L4.97523 10.3927V10.3004L4.87265 10.2491V10.1978L4.97523 10.2491V10.1568L4.87265 10.1157V10.0542L4.97523 10.1055V10.0132L4.87265 9.96188V9.91672L4.97523 9.96188V9.86955L4.87265 9.82852V9.77723L4.97523 9.81826V9.72594L4.87265 9.67465V9.62336L4.97523 9.67465V9.58232L4.87265 9.54129V9.49L4.97523 9.53103V9.44897L4.87265 9.39767V9.34638L4.97523 9.39767V9.29509L4.87265 9.24695V9.20277L4.97523 9.24695V9.15493L4.87265 9.10019V9.0489L4.97523 9.10019V9.00351L4.87265 8.95657V8.91554L4.97523 8.95657V8.87451L4.87265 8.82322V8.77192L4.97523 8.82322V8.73089L4.87265 8.66934V8.61805L4.97523 8.66934V8.57702L4.87265 8.52573V8.47444L4.97523 8.52573V8.44366L4.87265 8.38211V8.28979H4.82135V8.15643L4.73929 8.19746ZM6.33957 5.39697H10.3838L8.09108 8.38211L6.33957 8.38211V7.38707H7.16375C7.18685 7.51084 7.29544 7.60453 7.42592 7.60453C7.57322 7.60453 7.69264 7.48512 7.69264 7.33782C7.69264 7.19052 7.57322 7.07111 7.42592 7.07111C7.29689 7.07111 7.18925 7.16274 7.16454 7.28448H6.33957V6.81261H7.69613C7.71963 6.9359 7.82799 7.0291 7.95812 7.0291C8.10543 7.0291 8.22484 6.90968 8.22484 6.76238C8.22484 6.61508 8.10543 6.49567 7.95812 6.49567C7.82874 6.49567 7.72088 6.58779 7.69655 6.71002H6.33957V6.24841H8.23415C8.25212 6.37824 8.36355 6.47821 8.49833 6.47821C8.64563 6.47821 8.76505 6.3588 8.76505 6.2115C8.76505 6.0642 8.64563 5.94478 8.49833 5.94478C8.37003 5.94478 8.26289 6.03538 8.23738 6.15608H6.33957V5.39697Z" fill="#16E16E"/>
  <path fill-rule="evenodd" clip-rule="evenodd" d="M8.65609 6.21183C8.65609 6.29943 8.58507 6.37044 8.49748 6.37044C8.40988 6.37044 8.33887 6.29943 8.33887 6.21183C8.33887 6.12423 8.40988 6.05322 8.49748 6.05322C8.58507 6.05322 8.65609 6.12423 8.65609 6.21183ZM8.49748 6.34519C8.57113 6.34519 8.63083 6.28548 8.63083 6.21183C8.63083 6.13818 8.57113 6.07848 8.49748 6.07848C8.42383 6.07848 8.36412 6.13818 8.36412 6.21183C8.36412 6.28548 8.42383 6.34519 8.49748 6.34519Z" fill="#16E16E"/>
  <path fill-rule="evenodd" clip-rule="evenodd" d="M8.118 6.76188C8.118 6.84948 8.04699 6.92049 7.95939 6.92049C7.87179 6.92049 7.80078 6.84948 7.80078 6.76188C7.80078 6.67428 7.87179 6.60327 7.95939 6.60327C8.04699 6.60327 8.118 6.67428 8.118 6.76188ZM7.95939 6.89524C8.03304 6.89524 8.09275 6.83553 8.09275 6.76188C8.09275 6.68823 8.03304 6.62852 7.95939 6.62852C7.88574 6.62852 7.82603 6.68823 7.82603 6.76188C7.82603 6.83553 7.88574 6.89524 7.95939 6.89524Z" fill="#16E16E"/>
  <path fill-rule="evenodd" clip-rule="evenodd" d="M7.5848 7.33756C7.5848 7.42516 7.51379 7.49617 7.42619 7.49617C7.33859 7.49617 7.26758 7.42516 7.26758 7.33756C7.26758 7.24997 7.33859 7.17896 7.42619 7.17896C7.51379 7.17896 7.5848 7.24997 7.5848 7.33756ZM7.42619 7.47092C7.49984 7.47092 7.55954 7.41122 7.55954 7.33756C7.55954 7.26391 7.49984 7.20421 7.42619 7.20421C7.35254 7.20421 7.29283 7.26391 7.29283 7.33756C7.29283 7.41122 7.35254 7.47092 7.42619 7.47092Z" fill="#16E16E"/>
  <circle cx="8.4971" cy="6.21146" r="0.0820656" fill="#16E16E"/>
  <circle cx="7.95804" cy="6.76273" r="0.0820656" fill="#16E16E"/>
  <circle cx="7.42679" cy="7.33792" r="0.0820656" fill="#16E16E"/>
  <path fill-rule="evenodd" clip-rule="evenodd" d="M7.15519 10.0223L14.8437 0L11.4688 7.48849H13.6897L12.074 11.5815H13.9102L6.18066 21.6397L9.57613 14.1717H7.29881L8.98628 10.0223H7.15519ZM10.7199 7.99627H12.6177L11.4329 8.26811L10.3404 10.4172H11.9868L10.3404 13.7203L8.02714 13.6793L9.72487 13.2998L10.7712 11.3353H9.12477L10.7199 7.99627Z" fill="#16E16E"/>
</svg>