<svg width="17" height="16" viewBox="0 0 17 16" fill="none" xmlns="http://www.w3.org/2000/svg">
<path d="M14.1499 4.82462H10.8304V4.00022H14.1499V4.82462ZM8.62076 8.20584C8.83449 8.53772 8.94136 8.94063 8.94136 9.41323C8.94136 9.90243 8.82055 10.3412 8.57562 10.7288C8.42454 10.98 8.22644 11.1998 7.99217 11.376C7.71765 11.5833 7.39932 11.7249 7.06157 11.7902C6.67848 11.8665 6.28861 11.9037 5.89799 11.901H2.18555V3.65771H6.16682C7.16977 3.67431 7.88066 3.96504 8.30149 4.53588C8.55372 4.88635 8.67851 5.30585 8.67851 5.79504C8.67851 6.29884 8.55239 6.70175 8.29751 7.00841C8.15612 7.18032 7.94704 7.33631 7.67025 7.47769C8.08908 7.63102 8.40703 7.87263 8.6201 8.20584H8.62076ZM4.08724 6.90818H5.83095C6.18938 6.90818 6.47945 6.83981 6.70248 6.70374C6.9255 6.56767 7.03701 6.32539 7.03701 5.9789C7.03701 5.59525 6.88966 5.34103 6.59428 5.21823C6.34006 5.13327 6.01548 5.08946 5.6212 5.08946H4.08657V6.90818H4.08724ZM7.20495 9.29574C7.20495 8.86762 7.02971 8.57158 6.68057 8.41294C6.48476 8.322 6.2093 8.2762 5.85617 8.27288H4.08657V10.4699H5.82962C6.18739 10.4699 6.46418 10.4228 6.66398 10.3252C7.0244 10.1454 7.20561 9.80353 7.20561 9.29574H7.20495ZM15.3812 7.95494C15.421 8.22443 15.4396 8.61538 15.4323 9.12715H11.1331C11.157 9.72055 11.3615 10.1354 11.7504 10.373C11.9847 10.5217 12.2682 10.5947 12.6014 10.5947C12.9518 10.5947 13.2379 10.5058 13.4576 10.3233C13.5778 10.227 13.6833 10.0909 13.7749 9.91836H15.3507C15.3095 10.2688 15.1197 10.6246 14.7792 10.9857C14.2508 11.5599 13.5101 11.8479 12.5582 11.8479C11.7723 11.8479 11.0793 11.605 10.478 11.1211C9.8786 10.6352 9.57791 9.848 9.57791 8.75544C9.57791 7.73125 9.84806 6.94734 10.3904 6.40172C10.9346 5.85478 11.6369 5.58264 12.5025 5.58264C13.0162 5.58264 13.4782 5.67424 13.8911 5.85876C14.3026 6.04329 14.6424 6.33402 14.9106 6.73294C15.1529 7.08474 15.3089 7.49096 15.3819 7.95427L15.3812 7.95494ZM13.83 8.10827C13.8015 7.69806 13.6641 7.38742 13.4178 7.17501C13.1729 6.96261 12.8669 6.85574 12.5025 6.85574C12.1055 6.85574 11.7989 6.96991 11.5818 7.19426C11.3628 7.41795 11.226 7.72262 11.1703 8.10827H13.83Z" fill="#ABABAB"/>
</svg>
