<svg width="17" height="16" viewBox="0 0 17 16" fill="none" xmlns="http://www.w3.org/2000/svg">
<path d="M14.7897 2.05687C14.3032 1.57033 13.7177 1.32739 13.0327 1.32739H4.74428C4.05927 1.32739 3.47383 1.57033 2.98729 2.05687C2.50075 2.54341 2.25781 3.12885 2.25781 3.81386V12.1023C2.25781 12.7873 2.50075 13.3728 2.98729 13.8593C3.47383 14.3458 4.05927 14.5888 4.74428 14.5888H6.67849C6.80461 14.5888 6.89953 14.5841 6.96325 14.5755C7.03739 14.5606 7.1043 14.5211 7.15309 14.4633C7.21615 14.3969 7.24801 14.3007 7.24801 14.1746L7.24336 13.5872C7.24071 13.2128 7.23938 12.9167 7.23938 12.6977L7.04025 12.7322C6.91413 12.7555 6.75483 12.7654 6.56167 12.7628C6.36034 12.759 6.15966 12.7388 5.96163 12.7024C5.75082 12.6634 5.55237 12.5747 5.38282 12.4435C5.20526 12.3092 5.07283 12.1239 5.00315 11.9125L4.91686 11.7133C4.84413 11.5563 4.75276 11.4085 4.64472 11.2733C4.52126 11.112 4.3958 11.0031 4.26902 10.9454L4.20929 10.9022C4.16763 10.8724 4.12974 10.8376 4.09644 10.7987C4.06464 10.7625 4.03847 10.7218 4.01878 10.6779C4.00153 10.6374 4.01613 10.6042 4.06193 10.5783C4.10839 10.5518 4.19136 10.5391 4.31283 10.5391L4.48541 10.5657C4.60024 10.5883 4.74295 10.6573 4.91221 10.7721C5.08351 10.8889 5.22659 11.0424 5.33105 11.2215C5.4638 11.4571 5.62311 11.637 5.81029 11.7611C5.99747 11.8846 6.18598 11.947 6.37582 11.947C6.56565 11.947 6.72961 11.9324 6.86833 11.9038C7.00249 11.8761 7.13285 11.8324 7.25664 11.7737C7.30841 11.3888 7.44913 11.0914 7.67945 10.8843C7.38101 10.855 7.08522 10.8031 6.79465 10.729C6.51109 10.6511 6.23838 10.538 5.98287 10.3924C5.71553 10.2469 5.4794 10.0502 5.2879 9.81364C5.10404 9.58332 4.9527 9.2813 4.83455 8.9076C4.71707 8.53324 4.65799 8.10113 4.65799 7.61193C4.65799 6.91564 4.885 6.3229 5.33968 5.83304C5.12727 5.30999 5.14719 4.72256 5.40008 4.07273C5.56735 4.02029 5.81494 4.05945 6.14284 4.18889C6.47074 4.31832 6.71102 4.42917 6.86369 4.52077C7.01635 4.6137 7.13848 4.69136 7.23075 4.75442C7.77037 4.60424 8.32804 4.52875 8.88817 4.53006C9.45835 4.53006 10.0106 4.60507 10.5463 4.75442L10.8742 4.54732C11.1264 4.39589 11.3924 4.26876 11.6687 4.16765C11.974 4.05215 12.2063 4.02096 12.3683 4.07273C12.6272 4.72322 12.6497 5.30999 12.4367 5.8337C12.8913 6.3229 13.119 6.91564 13.119 7.61259C13.119 8.10179 13.0599 8.53523 12.9418 8.91158C12.8243 9.2886 12.6716 9.59062 12.4845 9.81829C12.2973 10.046 12.0643 10.2365 11.7855 10.3924C11.5067 10.5478 11.2359 10.6599 10.9737 10.729C10.6832 10.8034 10.3874 10.8555 10.0889 10.885C10.3876 11.1438 10.5376 11.552 10.5376 12.1103V14.1746C10.5376 14.2722 10.5516 14.3511 10.5808 14.4116C10.5942 14.4407 10.6133 14.4668 10.6371 14.4883C10.6608 14.5099 10.6886 14.5264 10.7188 14.537C10.7826 14.5596 10.8383 14.5742 10.8874 14.5795C10.9366 14.5861 11.0069 14.5881 11.0985 14.5881H13.0327C13.7177 14.5881 14.3032 14.3452 14.7897 13.8586C15.2756 13.3728 15.5192 12.7867 15.5192 12.1016V3.81386C15.5192 3.12885 15.2756 2.54341 14.7891 2.05687H14.7897Z" fill="#ABABAB"/>
</svg>
