<svg width="16" height="16" viewBox="0 0 16 16" fill="none" xmlns="http://www.w3.org/2000/svg">
<path d="M10.6302 1.32739H5.27359C4.22693 1.32862 3.2235 1.745 2.48347 2.48516C1.74343 3.22532 1.32723 4.22882 1.32617 5.27547L1.32617 10.6321C1.3274 11.6787 1.74378 12.6822 2.48394 13.4222C3.2241 14.1622 4.2276 14.5784 5.27425 14.5795H10.6308C11.6775 14.5783 12.6809 14.1619 13.421 13.4217C14.161 12.6816 14.5772 11.6781 14.5783 10.6314V5.27481C14.577 4.22815 14.1607 3.22473 13.4205 2.48469C12.6803 1.74465 11.6768 1.32845 10.6302 1.32739V1.32739ZM13.2454 10.6314C13.2454 10.9748 13.1778 11.3149 13.0463 11.6322C12.9149 11.9495 12.7223 12.2378 12.4794 12.4807C12.2366 12.7235 11.9483 12.9161 11.631 13.0476C11.3137 13.179 10.9736 13.2466 10.6302 13.2466H5.27359C4.5801 13.2465 3.91507 12.9709 3.42477 12.4804C2.93446 11.99 2.65901 11.3249 2.65901 10.6314V5.27481C2.65919 4.58132 2.9348 3.91629 3.42523 3.42599C3.91567 2.93568 4.58076 2.66023 5.27425 2.66023H10.6308C11.3243 2.66041 11.9894 2.93602 12.4797 3.42646C12.97 3.91689 13.2454 4.58198 13.2454 5.27547V10.6321V10.6314Z" fill="#ABABAB"/>
<path d="M7.9537 4.52637C7.04529 4.52777 6.1745 4.8893 5.53222 5.53171C4.88994 6.17412 4.52857 7.04498 4.52734 7.95339C4.5284 8.86203 4.88977 9.73317 5.53222 10.3757C6.17466 11.0183 7.04573 11.3798 7.95437 11.3811C8.86312 11.38 9.73436 11.0186 10.3769 10.376C11.0195 9.73338 11.381 8.86215 11.3821 7.95339C11.3807 7.04475 11.0189 6.17376 10.3762 5.53144C9.73355 4.88912 8.86235 4.52791 7.9537 4.52703V4.52637ZM7.9537 10.0482C7.39829 10.0482 6.86563 9.8276 6.47289 9.43487C6.08016 9.04213 5.85952 8.50947 5.85952 7.95406C5.85952 7.39864 6.08016 6.86598 6.47289 6.47325C6.86563 6.08051 7.39829 5.85987 7.9537 5.85987C8.50912 5.85987 9.04178 6.08051 9.43451 6.47325C9.82725 6.86598 10.0479 7.39864 10.0479 7.95406C10.0479 8.50947 9.82725 9.04213 9.43451 9.43487C9.04178 9.8276 8.50912 10.0482 7.9537 10.0482Z" fill="#ABABAB"/>
<path d="M11.3875 5.37311C11.841 5.37311 12.2086 5.0055 12.2086 4.55204C12.2086 4.09857 11.841 3.73096 11.3875 3.73096C10.934 3.73096 10.5664 4.09857 10.5664 4.55204C10.5664 5.0055 10.934 5.37311 11.3875 5.37311Z" fill="#ABABAB"/>
</svg>
