<svg width="402" height="684" viewBox="0 0 402 684" fill="none" xmlns="http://www.w3.org/2000/svg">
<path d="M36.9801 405.384H365.056M36.9801 405.384V320.242M36.9801 405.384V553.301M365.056 405.384V320.242M365.056 405.384V553.301M36.9801 684.144V643.723M365.056 684.144V643.723M36.9801 320.242H365.056M36.9801 320.242V85.29M365.056 320.242V189.06M36.9801 553.301H365.056M36.9801 553.301V643.723M365.056 553.301V643.723M36.9801 38.6077V85.29M365.056 189.06H401.967M365.056 189.06V149.583M36.9801 643.723H-0.0719771M365.056 643.723H402.076M365.056 142.369V131.407M36.9801 85.29H-0.0761719" stroke="white" stroke-opacity="0.3"/>
<path opacity="0.3" d="M381.4 211.863V211.139H383.123C383.495 211.139 383.782 211.045 383.984 210.855C384.186 210.666 384.286 210.409 384.286 210.086C384.286 209.78 384.186 209.527 383.984 209.325C383.789 209.123 383.504 209.023 383.132 209.023H381.4V208.271H383.159C383.563 208.271 383.914 208.351 384.213 208.509C384.512 208.662 384.742 208.873 384.9 209.142C385.065 209.41 385.148 209.719 385.148 210.067C385.148 210.428 385.065 210.742 384.9 211.011C384.742 211.28 384.512 211.491 384.213 211.643C383.914 211.79 383.563 211.863 383.159 211.863H381.4ZM380.823 214.631V208.271H381.684V214.631H380.823ZM384.488 214.631L382.179 211.781L382.994 211.497L385.578 214.631H384.488ZM381.006 226.631V220.271H381.867V226.631H381.006ZM381.593 226.631V225.843H385.24V226.631H381.593ZM381.593 223.753V223.002H384.937V223.753H381.593ZM381.593 221.059V220.271H385.194V221.059H381.593ZM382.751 238.631L380.203 232.271H381.138L383.236 237.65H382.897L385.014 232.271H385.94L383.374 238.631H382.751ZM382.904 250.722C382.452 250.722 382.03 250.64 381.639 250.475C381.248 250.304 380.906 250.069 380.613 249.769C380.32 249.464 380.091 249.113 379.926 248.715C379.767 248.318 379.688 247.894 379.688 247.442C379.688 246.984 379.767 246.559 379.926 246.168C380.091 245.771 380.317 245.423 380.604 245.123C380.897 244.824 381.236 244.592 381.621 244.427C382.012 244.262 382.434 244.18 382.886 244.18C383.338 244.18 383.756 244.262 384.141 244.427C384.532 244.592 384.874 244.824 385.167 245.123C385.461 245.423 385.69 245.771 385.855 246.168C386.02 246.565 386.102 246.993 386.102 247.451C386.102 247.903 386.02 248.328 385.855 248.725C385.69 249.122 385.461 249.47 385.167 249.769C384.88 250.069 384.541 250.304 384.15 250.475C383.765 250.64 383.35 250.722 382.904 250.722ZM382.886 249.898C383.344 249.898 383.744 249.794 384.086 249.586C384.434 249.372 384.709 249.082 384.911 248.715C385.112 248.343 385.213 247.918 385.213 247.442C385.213 247.087 385.155 246.764 385.039 246.47C384.923 246.171 384.761 245.911 384.553 245.691C384.346 245.472 384.101 245.304 383.82 245.187C383.539 245.065 383.228 245.004 382.886 245.004C382.434 245.004 382.033 245.108 381.685 245.316C381.343 245.523 381.071 245.811 380.87 246.177C380.674 246.544 380.576 246.965 380.576 247.442C380.576 247.796 380.631 248.126 380.741 248.431C380.857 248.731 381.016 248.99 381.218 249.21C381.426 249.424 381.67 249.592 381.951 249.714C382.238 249.836 382.55 249.898 382.886 249.898ZM381.23 262.631V256.271H382.091V262.631H381.23ZM381.816 262.631V261.843H385.225V262.631H381.816ZM382.946 274.722C382.475 274.722 382.054 274.618 381.681 274.411C381.315 274.197 381.024 273.907 380.811 273.54C380.597 273.168 380.49 272.746 380.49 272.276V268.271H381.351V272.257C381.351 272.593 381.421 272.883 381.562 273.128C381.702 273.372 381.892 273.562 382.13 273.696C382.374 273.83 382.646 273.898 382.946 273.898C383.257 273.898 383.529 273.83 383.761 273.696C383.999 273.562 384.186 273.372 384.32 273.128C384.461 272.883 384.531 272.596 384.531 272.266V268.271H385.401V272.285C385.401 272.755 385.295 273.174 385.081 273.54C384.867 273.907 384.577 274.197 384.21 274.411C383.844 274.618 383.422 274.722 382.946 274.722ZM382.468 286.631V280.454H383.33V286.631H382.468ZM380.306 281.059V280.271H385.483V281.059H380.306ZM382.465 298.631V292.271H383.326V298.631H382.465ZM382.904 310.722C382.452 310.722 382.03 310.64 381.639 310.475C381.248 310.304 380.906 310.069 380.613 309.769C380.32 309.464 380.091 309.113 379.926 308.715C379.767 308.318 379.688 307.894 379.688 307.442C379.688 306.984 379.767 306.559 379.926 306.168C380.091 305.771 380.317 305.423 380.604 305.123C380.897 304.824 381.236 304.592 381.621 304.427C382.012 304.262 382.434 304.18 382.886 304.18C383.338 304.18 383.756 304.262 384.141 304.427C384.532 304.592 384.874 304.824 385.167 305.123C385.461 305.423 385.69 305.771 385.855 306.168C386.02 306.565 386.102 306.993 386.102 307.451C386.102 307.903 386.02 308.328 385.855 308.725C385.69 309.122 385.461 309.47 385.167 309.769C384.88 310.069 384.541 310.304 384.15 310.475C383.765 310.64 383.35 310.722 382.904 310.722ZM382.886 309.898C383.344 309.898 383.744 309.794 384.086 309.586C384.434 309.372 384.709 309.082 384.911 308.715C385.112 308.343 385.213 307.918 385.213 307.442C385.213 307.087 385.155 306.764 385.039 306.47C384.923 306.171 384.761 305.911 384.553 305.691C384.346 305.472 384.101 305.304 383.82 305.187C383.539 305.065 383.228 305.004 382.886 305.004C382.434 305.004 382.033 305.108 381.685 305.316C381.343 305.523 381.071 305.811 380.87 306.177C380.674 306.544 380.576 306.965 380.576 307.442C380.576 307.796 380.631 308.126 380.741 308.431C380.857 308.731 381.016 308.99 381.218 309.21C381.426 309.424 381.67 309.592 381.951 309.714C382.238 309.836 382.55 309.898 382.886 309.898ZM380.393 322.631V316.271H380.998L381.254 317.27V322.631H380.393ZM384.792 322.631L380.888 317.417L380.998 316.271L384.911 321.476L384.792 322.631ZM384.792 322.631L384.535 321.687V316.271H385.396V322.631H384.792ZM382.465 334.631V328.271H383.326V334.631H382.465ZM380.581 346.035L384.173 340.858H385.181L381.589 346.035H380.581ZM380.581 346.631V346.035L381.314 345.843H385.117V346.631H380.581ZM380.773 341.059V340.271H385.181V340.858L384.439 341.059H380.773ZM380.943 358.631V352.271H381.805V358.631H380.943ZM381.53 358.631V357.843H385.177V358.631H381.53ZM381.53 355.753V355.002H384.875V355.753H381.53ZM381.53 353.059V352.271H385.131V353.059H381.53Z" fill="white"/>
<path opacity="0.3" d="M27.8368 61.9796L30.3109 64.3254C30.5553 64.5637 30.766 64.75 30.9432 64.8844C31.1265 65.0188 31.2945 65.1135 31.4472 65.1685C31.5999 65.2295 31.7588 65.2601 31.9237 65.2601C32.2475 65.2601 32.501 65.1562 32.6843 64.9485C32.8675 64.7408 32.9592 64.472 32.9592 64.1421C32.9592 63.8184 32.8798 63.5343 32.7209 63.2899C32.5682 63.0456 32.3299 62.8287 32.0062 62.6393L32.5102 62.0345C32.9256 62.285 33.2371 62.5874 33.4448 62.9417C33.6587 63.296 33.7656 63.7053 33.7656 64.1696C33.7656 64.5606 33.6892 64.8997 33.5365 65.1868C33.3838 65.48 33.1699 65.706 32.895 65.8649C32.6201 66.0237 32.2994 66.1031 31.9329 66.1031C31.6702 66.1031 31.435 66.0695 31.2273 66.0023C31.0196 65.9412 30.8057 65.8282 30.5858 65.6633C30.372 65.5044 30.1154 65.2815 29.8161 64.9943L27.8643 63.0975L27.8368 61.9796ZM27.3145 61.9796L27.8368 61.9796L28.0842 62.7126L28.0842 66.2497L27.3145 66.2497L27.3145 61.9796ZM27.2228 69.6587C27.2228 69.1822 27.3572 68.7454 27.626 68.3483C27.8948 67.9574 28.2736 67.6458 28.7623 67.4137C29.2571 67.1815 29.8375 67.0654 30.5034 67.0654C31.1692 67.0654 31.7465 67.1785 32.2353 67.4045C32.724 67.6366 33.0997 67.9482 33.3624 68.3392C33.6312 68.7301 33.7656 69.1608 33.7656 69.6312C33.7656 70.1138 33.6312 70.5506 33.3624 70.9416C33.0997 71.3326 32.724 71.6411 32.2353 71.8671C31.7465 72.0993 31.1662 72.2153 30.4942 72.2153C29.8283 72.2153 29.248 72.0993 28.7531 71.8671C28.2644 71.6411 27.8856 71.3326 27.6168 70.9416C27.3542 70.5567 27.2228 70.1291 27.2228 69.6587ZM28.0384 69.6404C28.0384 69.9764 28.13 70.2696 28.3133 70.5201C28.5027 70.7767 28.7806 70.9783 29.1472 71.1249C29.5137 71.2715 29.9658 71.3448 30.5034 71.3448C31.0409 71.3448 31.49 71.2715 31.8504 71.1249C32.2169 70.9783 32.4918 70.7767 32.6751 70.5201C32.8645 70.2635 32.9592 69.9672 32.9592 69.6312C32.9592 69.3013 32.8645 69.0081 32.6751 68.7515C32.4918 68.495 32.2169 68.2934 31.8504 68.1467C31.49 68.0062 31.0409 67.936 30.5034 67.936C29.9658 67.936 29.5137 68.0062 29.1472 68.1467C28.7806 68.2934 28.5027 68.495 28.3133 68.7515C28.13 69.0081 28.0384 69.3044 28.0384 69.6404ZM27.2228 75.544C27.2228 75.2141 27.29 74.9148 27.4244 74.646C27.5649 74.3833 27.7574 74.1725 28.0017 74.0137C28.2461 73.8548 28.524 73.7663 28.8356 73.7479L30.146 73.7479C30.4636 73.7663 30.7416 73.8548 30.9799 74.0137C31.2242 74.1786 31.4136 74.3924 31.548 74.6551C31.6885 74.9239 31.7588 75.2202 31.7588 75.544C31.7588 75.9411 31.658 76.2984 31.4564 76.6161C31.2548 76.9399 30.9829 77.1934 30.6408 77.3767C30.2987 77.56 29.9138 77.6516 29.4862 77.6516C29.0586 77.6516 28.6737 77.56 28.3316 77.3767C27.9895 77.1934 27.7176 76.9399 27.516 76.6161C27.3206 76.2984 27.2228 75.9411 27.2228 75.544ZM28.0017 75.4065C28.0017 75.6814 28.0659 75.9227 28.1941 76.1305C28.3224 76.3382 28.4965 76.5031 28.7165 76.6253C28.9425 76.7475 29.2021 76.8086 29.4954 76.8086C29.7825 76.8086 30.0391 76.7475 30.2651 76.6253C30.4911 76.5031 30.6652 76.3382 30.7874 76.1305C30.9157 75.9227 30.9799 75.6845 30.9799 75.4157C30.9799 75.1408 30.9157 74.8995 30.7874 74.6918C30.6652 74.4841 30.4911 74.3222 30.2651 74.2061C30.0391 74.09 29.7794 74.032 29.4862 74.032C29.1991 74.032 28.9425 74.087 28.7165 74.1969C28.4965 74.313 28.3224 74.4749 28.1941 74.6826C28.0659 74.8964 28.0017 75.1377 28.0017 75.4065ZM25.4909 73.2531L31.6671 73.2531L31.6671 74.0778L30.5217 74.0778L29.4679 73.922L28.4049 74.0778L25.4909 74.0778L25.4909 73.2531ZM27.3144 81.3113L29.2205 79.9551L29.3671 79.7994L31.6671 78.0858L31.6671 79.0846L29.9719 80.3217L29.8436 80.4775L27.3144 82.3102L27.3144 81.3113ZM27.3144 78.0033L29.7336 79.7994L29.1288 80.2667L27.3144 78.9746L27.3144 78.0033ZM29.3762 80.5416L29.9627 80.0651L31.6671 81.2655L31.6671 82.2277L29.3762 80.5416Z" fill="white"/>
<path opacity="0.3" d="M40.8668 315.445L43.2127 312.971C43.451 312.727 43.6373 312.516 43.7717 312.339C43.9061 312.156 44.0008 311.988 44.0558 311.835C44.1168 311.682 44.1474 311.523 44.1474 311.358C44.1474 311.035 44.0435 310.781 43.8358 310.598C43.6281 310.414 43.3593 310.323 43.0294 310.323C42.7057 310.323 42.4216 310.402 42.1772 310.561C41.9329 310.714 41.716 310.952 41.5266 311.276L40.9218 310.772C41.1723 310.356 41.4747 310.045 41.829 309.837C42.1833 309.623 42.5926 309.516 43.0569 309.516C43.4479 309.516 43.787 309.593 44.0741 309.746C44.3673 309.898 44.5933 310.112 44.7522 310.387C44.911 310.662 44.9904 310.983 44.9904 311.349C44.9904 311.612 44.9568 311.847 44.8896 312.055C44.8285 312.262 44.7155 312.476 44.5506 312.696C44.3917 312.91 44.1688 313.167 43.8816 313.466L41.9848 315.418L40.8668 315.445ZM40.8668 315.968V315.445L41.5999 315.198H45.137V315.968H40.8668ZM48.546 316.059C48.0695 316.059 47.6327 315.925 47.2356 315.656C46.8447 315.387 46.5331 315.008 46.301 314.52C46.0688 314.025 45.9527 313.445 45.9527 312.779C45.9527 312.113 46.0658 311.535 46.2918 311.047C46.5239 310.558 46.8355 310.182 47.2265 309.92C47.6174 309.651 48.0481 309.516 48.5185 309.516C49.0011 309.516 49.4379 309.651 49.8289 309.92C50.2199 310.182 50.5284 310.558 50.7544 311.047C50.9866 311.535 51.1026 312.116 51.1026 312.788C51.1026 313.454 50.9866 314.034 50.7544 314.529C50.5284 315.018 50.2199 315.396 49.8289 315.665C49.444 315.928 49.0164 316.059 48.546 316.059ZM48.5277 315.244C48.8637 315.244 49.1569 315.152 49.4074 314.969C49.664 314.779 49.8656 314.501 50.0122 314.135C50.1588 313.768 50.2321 313.316 50.2321 312.779C50.2321 312.241 50.1588 311.792 50.0122 311.432C49.8656 311.065 49.664 310.79 49.4074 310.607C49.1508 310.417 48.8545 310.323 48.5185 310.323C48.1886 310.323 47.8954 310.417 47.6388 310.607C47.3823 310.79 47.1807 311.065 47.034 311.432C46.8935 311.792 46.8233 312.241 46.8233 312.779C46.8233 313.316 46.8935 313.768 47.034 314.135C47.1807 314.501 47.3823 314.779 47.6388 314.969C47.8954 315.152 48.1917 315.244 48.5277 315.244ZM52.7727 316.059C52.6016 316.059 52.4581 316.001 52.342 315.885C52.232 315.763 52.1771 315.622 52.1771 315.464C52.1771 315.286 52.232 315.143 52.342 315.033C52.4581 314.917 52.6016 314.859 52.7727 314.859C52.9437 314.859 53.0842 314.917 53.1942 315.033C53.3103 315.143 53.3683 315.286 53.3683 315.464C53.3683 315.622 53.3103 315.763 53.1942 315.885C53.0842 316.001 52.9437 316.059 52.7727 316.059ZM52.7727 313.2C52.6016 313.2 52.4581 313.142 52.342 313.026C52.232 312.91 52.1771 312.769 52.1771 312.605C52.1771 312.427 52.232 312.284 52.342 312.174C52.4581 312.058 52.6016 312 52.7727 312C52.9437 312 53.0842 312.058 53.1942 312.174C53.3103 312.284 53.3683 312.427 53.3683 312.605C53.3683 312.769 53.3103 312.91 53.1942 313.026C53.0842 313.142 52.9437 313.2 52.7727 313.2ZM55.6087 315.968V309.608H56.4609V315.968H55.6087ZM54.3074 310.378V309.608H56.3692V310.378H54.3074ZM58.5472 315.968L60.4624 313.356L60.7739 313.191C60.7006 313.313 60.6121 313.42 60.5082 313.512C60.4043 313.603 60.2761 313.674 60.1233 313.722C59.9767 313.771 59.7965 313.796 59.5827 313.796C59.2161 313.796 58.8771 313.707 58.5655 313.53C58.2601 313.353 58.0157 313.109 57.8325 312.797C57.6492 312.479 57.5575 312.122 57.5575 311.725C57.5575 311.316 57.6583 310.946 57.8599 310.616C58.0615 310.28 58.3303 310.014 58.6663 309.819C59.0023 309.617 59.375 309.516 59.7843 309.516C60.1997 309.516 60.5754 309.614 60.9114 309.81C61.2474 310.005 61.5131 310.268 61.7086 310.598C61.9041 310.921 62.0019 311.288 62.0019 311.697C62.0019 312.259 61.8064 312.818 61.4154 313.374L59.546 315.968H58.5472ZM59.7843 313.118C60.0409 313.118 60.2699 313.057 60.4715 312.934C60.6792 312.806 60.8411 312.638 60.9572 312.43C61.0794 312.217 61.1405 311.981 61.1405 311.725C61.1405 311.456 61.0794 311.218 60.9572 311.01C60.8411 310.796 60.6792 310.628 60.4715 310.506C60.2699 310.384 60.0409 310.323 59.7843 310.323C59.5277 310.323 59.2956 310.384 59.0879 310.506C58.8863 310.628 58.7244 310.796 58.6022 311.01C58.48 311.218 58.4189 311.456 58.4189 311.725C58.4189 311.988 58.48 312.223 58.6022 312.43C58.7244 312.638 58.8893 312.806 59.097 312.934C59.3047 313.057 59.5338 313.118 59.7843 313.118Z" fill="white"/>
</svg>
